<?xml version="1.0" encoding="UTF-8"?><svg id="Layer_1" xmlns="http://www.w3.org/2000/svg" viewBox="0 0 19.4802 22"><defs><style>.cls-1{fill:#a2b6fc;}.cls-2{fill:#2b47fc;}</style></defs><path class="cls-1" d="M16.3514,15c.2529,0,.501,0,.7256-.001-.1572-.2568-.3418-.5527-.5303-.8564-1.2002-1.9287-1.8066-4.3291-1.8066-7.1426,0-1.3354-.5195-2.5913-1.4639-3.5356-.9453-.9443-2.2012-1.4644-3.5361-1.4644s-2.5908,.52-3.5356,1.4644c-.9443,.9448-1.4644,2.2007-1.4644,3.5356,0,2.8135-.606,5.2139-1.8013,7.1338-.1914,.3076-.3774,.6064-.5352,.8652,.2236,.001,.4722,.001,.7251,.001h13.2227Z"/><path class="cls-2" d="M18.2391,13.0771c-.9941-1.5986-1.499-3.6431-1.499-6.0771,0-1.8696-.7275-3.6274-2.0498-4.9502-1.3232-1.3218-3.0811-2.0498-4.9502-2.0498s-3.627,.728-4.9497,2.0503c-1.3223,1.3228-2.0503,3.0806-2.0503,4.9497,0,2.4341-.5044,4.4785-1.5054,6.0869C.159,14.8164-.0349,15.1279,.0047,15.624c.0391,.4697,.2251,.8027,.5996,1.0791,.3984,.2969,.8066,.2969,2.5244,.2969h13.2227c1.7168,0,2.125,0,2.5186-.293,.3809-.2793,.5674-.6143,.6055-1.083,.04-.4951-.1533-.8066-1.2363-2.5469Zm-15.3003,1.0566c1.1953-1.9199,1.8013-4.3203,1.8013-7.1338,0-1.335,.52-2.5908,1.4644-3.5356,.9448-.9443,2.2007-1.4644,3.5356-1.4644s2.5908,.52,3.5361,1.4644c.9443,.9443,1.4639,2.2002,1.4639,3.5356,0,2.8135,.6064,5.2139,1.8066,7.1426,.1885,.3037,.373,.5996,.5303,.8564-.2246,.001-.4727,.001-.7256,.001H3.1287c-.2529,0-.5015,0-.7251-.001,.1577-.2588,.3438-.5576,.5352-.8652Z"/><path class="cls-2" d="M11.7244,19.25c-1.0977,.9668-2.873,.9668-3.9688,0-.4136-.3662-1.0464-.3262-1.4116,.0889-.3652,.4141-.3257,1.0459,.0884,1.4111,.9136,.8057,2.0884,1.25,3.3076,1.25s2.3936-.4443,3.3066-1.25c.415-.3652,.4541-.9971,.0889-1.4111-.3672-.415-.999-.4531-1.4111-.0889Z"/></svg>