<?xml version="1.0" encoding="UTF-8"?><svg id="Layer_1" xmlns="http://www.w3.org/2000/svg" viewBox="0 0 22 20"><defs><style>.cls-1{fill:none;}.cls-2{fill:#a2b6fc;}.cls-3{fill:#2b47fc;}</style></defs><path class="cls-1" d="M13.9316,3.4834c-.1846-.689-.7266-1.231-1.4141-1.4155-.2539-.0679-.7031-.0679-1.5176-.0679-.8149,0-1.2637,0-1.5181,.0679-.6875,.1846-1.2295,.7266-1.4141,1.4146-.0322,.1216-.0493,.2881-.0581,.5176h5.9805c-.0088-.2295-.0254-.3955-.0586-.5166Z"/><path class="cls-2" d="M19.4531,6.1084c-.2129-.1084-.7861-.1084-1.6533-.1084H4.2002c-.8677,0-1.4404,0-1.6553,.1089-.1855,.0952-.3408,.2505-.4365,.4375-.1084,.2134-.1084,.7861-.1084,1.6538v7.5996c0,.8672,0,1.4404,.1089,1.6543,.0962,.1885,.248,.3408,.4385,.4375,.2124,.1084,.7852,.1084,1.6528,.1084h13.5996c.8672,0,1.4404,0,1.6543-.1094,.1885-.0957,.3408-.248,.4375-.4375,.1084-.2129,.1084-.7861,.1084-1.6533v-7.5996c0-.8677,0-1.4404-.1094-1.6553-.0957-.188-.248-.3398-.4375-.4365Z"/><path class="cls-3" d="M21.6729,5.6362c-.291-.5674-.7432-1.02-1.3105-1.3096-.6416-.3267-1.3242-.3267-2.5625-.3267h-1.8086c-.0127-.4199-.0449-.728-.1279-1.0352-.3682-1.376-1.4521-2.46-2.8291-2.8291-.5088-.1357-1.0186-.1357-2.0342-.1357-1.0166,0-1.5264,0-2.0352,.1362-1.376,.3687-2.46,1.4526-2.8286,2.8291-.0825,.3071-.1147,.6147-.1279,1.0347h-1.8081c-1.2378,0-1.9199,0-2.563,.3271-.5674,.2896-1.0205,.7427-1.3105,1.3115-.3267,.6416-.3267,1.3237-.3267,2.5615v7.5996c0,1.2383,0,1.9209,.3271,2.5635,.2891,.5664,.7417,1.0186,1.3115,1.3105,.6416,.3262,1.3237,.3262,2.5615,.3262h13.5996c1.2383,0,1.9209,0,2.5635-.3271,.5664-.29,1.0195-.7432,1.3105-1.3105,.3262-.6416,.3262-1.3242,.3262-2.5625v-7.5996c0-1.2378,0-1.9199-.3271-2.564Zm-1.6729,10.1636c0,.8672,0,1.4404-.1084,1.6533-.0967,.1895-.249,.3418-.4375,.4375-.2139,.1094-.7871,.1094-1.6543,.1094H4.2002c-.8677,0-1.4404,0-1.6528-.1084-.1904-.0967-.3423-.249-.4385-.4375-.1089-.2139-.1089-.7871-.1089-1.6543v-7.5996c0-.8677,0-1.4404,.1084-1.6538,.0957-.187,.251-.3423,.4365-.4375,.2148-.1089,.7876-.1089,1.6553-.1089h13.5996c.8672,0,1.4404,0,1.6533,.1084,.1895,.0967,.3418,.2485,.4375,.4365,.1094,.2148,.1094,.7876,.1094,1.6553v7.5996ZM8.0679,3.4824c.1846-.688,.7266-1.23,1.4141-1.4146,.2544-.0679,.7031-.0679,1.5181-.0679,.8145,0,1.2637,0,1.5176,.0679,.6875,.1846,1.2295,.7266,1.4141,1.4155,.0332,.1211,.0498,.2871,.0586,.5166h-5.9805c.0088-.2295,.0259-.396,.0581-.5176Z"/></svg>