<?xml version="1.0" encoding="UTF-8"?><svg id="Layer_1" xmlns="http://www.w3.org/2000/svg" viewBox="0 0 22 18"><defs><style>.cls-1{fill:none;stroke:#333333;stroke-linecap:round;stroke-linejoin:round;stroke-width:2px;}</style></defs><path class="cls-1" d="M1,4l8.1649,5.7154c.6612,.4629,.9918,.6943,1.3514,.7839,.3176,.0792,.6498,.0792,.9674,0,.3596-.0896,.6902-.321,1.3514-.7839l8.1649-5.7154M5.8,17h10.4c1.6802,0,2.5202,0,3.162-.327,.5645-.2876,1.0234-.7465,1.311-1.311,.327-.6418,.327-1.4818,.327-3.162V5.8c0-1.6802,0-2.5202-.327-3.162-.2876-.5645-.7465-1.0234-1.311-1.311-.6418-.327-1.4818-.327-3.162-.327H5.8c-1.6802,0-2.5202,0-3.162,.327-.5645,.2876-1.0234,.7466-1.311,1.311-.327,.6417-.327,1.4818-.327,3.162v6.4c0,1.6802,0,2.5202,.327,3.162,.2876,.5645,.7466,1.0234,1.311,1.311,.6417,.327,1.4818,.327,3.162,.327Z"/></svg>