<?xml version="1.0" encoding="UTF-8"?><svg id="Layer_1" xmlns="http://www.w3.org/2000/svg" viewBox="0 0 22.0002 18"><defs><style>.cls-1{fill:none;}.cls-2{fill:#a2b6fc;}.cls-3{fill:#2b47fc;}</style></defs><path class="cls-1" d="M11.7241,11.4697c-.4731,.1172-.9746,.1172-1.4497,0-.5396-.1338-.9458-.4189-1.6831-.9355L2,5.9204v6.2798c0,1.4697,0,2.2793,.2183,2.708,.1929,.3789,.4951,.6807,.873,.873,.4287,.2188,1.2383,.2188,2.7085,.2188h10.4004c1.4697,0,2.2793,0,2.708-.2188,.3789-.1924,.6807-.4941,.873-.8721,.2188-.4297,.2188-1.2393,.2188-2.709V5.9204l-6.5918,4.6138c-.7373,.5166-1.1436,.8018-1.6841,.9355Z"/><path class="cls-1" d="M3.191,2.1785c-.0333,.0131-.0692,.0247-.0987,.0397-.0564,.0287-.098,.0758-.1508,.1093l.2495-.149Z"/><path class="cls-2" d="M2.2183,3.0923c-.0601,.1177-.1035,.2642-.1353,.4453l7.6553,5.3584c.5234,.3667,.8389,.5879,1.0181,.6323,.1592,.0396,.3262,.0391,.4858,.0005,.1807-.0449,.4961-.2661,1.0186-.6323l7.6562-5.3589c-.0312-.1812-.0752-.3276-.1348-.4453-.1934-.3789-.4951-.6812-.874-.874-.4287-.2183-1.2383-.2183-2.708-.2183H5.7998c-1.3688,0-2.1603,.0024-2.6088,.1785l-.2495,.149c-.3025,.1913-.559,.4423-.7232,.7648Z"/><path class="cls-3" d="M21.9824,4.1885c.0312-.1631,.0215-.334-.0303-.4961-.0527-.6001-.1611-1.063-.3877-1.5078-.3857-.7573-.9902-1.3623-1.748-1.7485-.8564-.436-1.7793-.436-3.6162-.436H5.7998c-1.8379,0-2.7603,0-3.6157,.436-.7573,.3862-1.3618,.9907-1.748,1.748-.2266,.4448-.3354,.9077-.3877,1.5083-.0527,.1621-.0615,.333-.0303,.4961C0,4.6396,0,5.165,0,5.7998v6.4004C0,14.0371,0,14.96,.436,15.8164c.3862,.7578,.9912,1.3623,1.748,1.7471,.8555,.4365,1.7778,.4365,3.6157,.4365h10.4004c1.8369,0,2.7598,0,3.6152-.4355,.7588-.3857,1.3633-.9902,1.749-1.748,.4355-.8564,.4355-1.7793,.4355-3.6162V5.7998c0-.6348,0-1.1602-.0176-1.6113ZM3.191,2.1785c.4485-.1761,1.2401-.1785,2.6088-.1785h10.4004c1.4697,0,2.2793,0,2.708,.2183,.3789,.1929,.6807,.4951,.874,.874,.0596,.1177,.1035,.2642,.1348,.4453l-7.6562,5.3589c-.5225,.3662-.8379,.5874-1.0186,.6323-.1597,.0386-.3267,.0391-.4858-.0005-.1792-.0444-.4946-.2656-1.0181-.6323L2.083,3.5376c.0317-.1812,.0752-.3276,.1353-.4453,.1642-.3225,.4207-.5735,.7232-.7648,.0529-.0334,.0944-.0806,.1508-.1093,.0295-.0151,.0654-.0267,.0987-.0397ZM20,12.2002c0,1.4697,0,2.2793-.2188,2.709-.1924,.3779-.4941,.6797-.873,.8721-.4287,.2188-1.2383,.2188-2.708,.2188H5.7998c-1.4702,0-2.2798,0-2.7085-.2188-.3779-.1924-.6802-.4941-.873-.873-.2183-.4287-.2183-1.2383-.2183-2.708V5.9204l6.5913,4.6138c.7373,.5166,1.1436,.8018,1.6831,.9355,.4751,.1172,.9766,.1172,1.4497,0,.5405-.1338,.9468-.4189,1.6841-.9355l6.5918-4.6138v6.2798Z"/></svg>