<?xml version="1.0" encoding="UTF-8"?><svg id="Layer_1" xmlns="http://www.w3.org/2000/svg" viewBox="0 0 22 22"><defs><style>.cls-1{fill:none;}.cls-2{fill:#a2b6fc;}.cls-3{fill:#2b47fc;}</style></defs><path class="cls-1" d="M11,2C6.04,2,2,6.04,2,11c0,2.14,.77,4.21,2.14,5.82,.93-1.14,2.34-1.82,3.86-1.82h6c1.53,0,2.93,.69,3.86,1.82,1.37-1.62,2.14-3.68,2.14-5.82,0-4.96-4.04-9-9-9Zm0,11.5c-2.76,0-5-2.24-5-5s2.24-5,5-5,5,2.24,5,5-2.24,5-5,5Z"/><circle class="cls-2" cx="11" cy="8.5" r="3"/><path class="cls-2" d="M14,17h-6c-.96,0-1.85,.45-2.4,1.2,1.55,1.17,3.44,1.8,5.4,1.8s3.85-.63,5.4-1.8c-.55-.75-1.44-1.2-2.4-1.2Z"/><path class="cls-3" d="M11,3.5c-2.76,0-5,2.24-5,5s2.24,5,5,5,5-2.24,5-5-2.24-5-5-5Zm-3,5c0-1.65,1.35-3,3-3s3,1.35,3,3-1.35,3-3,3-3-1.35-3-3Z"/><path class="cls-3" d="M11,0C4.93,0,0,4.93,0,11c0,3.11,1.32,6.09,3.63,8.17,.01,.01,.02,.02,.04,.03,2.02,1.81,4.62,2.8,7.33,2.8s5.31-.99,7.33-2.8c.01,0,.02-.02,.04-.03,2.31-2.08,3.63-5.06,3.63-8.17C22,4.93,17.07,0,11,0Zm0,20c-1.96,0-3.85-.63-5.4-1.8,.55-.75,1.44-1.2,2.4-1.2h6c.96,0,1.85,.45,2.4,1.2-1.55,1.17-3.44,1.8-5.4,1.8Zm6.86-3.18c-.93-1.14-2.34-1.82-3.86-1.82h-6c-1.53,0-2.93,.69-3.86,1.82-1.37-1.62-2.14-3.68-2.14-5.82C2,6.04,6.04,2,11,2s9,4.04,9,9c0,2.14-.77,4.21-2.14,5.82Z"/></svg>