<svg id="Layer_1" data-name="Layer 1" xmlns="http://www.w3.org/2000/svg" viewBox="0 0 863.07 121.08"><defs><style>.cls-1{fill:#231f20;fill-rule:evenodd;}</style></defs><path id="church1099_copy" data-name="church1099 copy" class="cls-1" d="M9.48,77.8c-.06,22.09,12.15,42.57,44.7,42.66,27.48.07,42.73-15.26,42-37.51L73.57,86.16C75.16,103.83,66.63,112,54.2,112,37.52,111.9,32,98.8,32.05,77.86s5.65-34,22.34-34c12.43,0,19.28,8.24,17.6,24.26L94.55,71.5c.88-20.61-12.49-36-40-36.1C22,35.31,9.54,55.72,9.48,77.8ZM182,99.54,182.08,67c.06-21.27-11.53-31.28-28.22-31.32-16.52-.05-26,9.74-29.51,25.11h-1.64l.13-45.15c0-13.41-7.16-14.41-19.92-14.45l-10.79,0,0,5.24c5.89,0,8.17,3.94,8.14,14.41L100,99.32c0,10.46-2.33,14.38-8.22,14.37l0,5.23,38.93.11,0-5.24c-5.89,0-8.17-3.94-8.14-14.41l0-9.81c.07-22.41,7.65-45.46,24.34-45.41,9,0,12.58,6.25,12.55,17.21l-.11,38.11c0,10.47-2.33,14.39-8.21,14.37l0,5.24,38.93.11,0-5.24C184.24,113.94,182,110,182,99.54Zm98.14-56.65V37.66l-38.93-.11v5.23c5.88,0,8.17,3.95,8.14,14.42l0,9.81c-.06,22.41-7.65,45.46-24.34,45.41-9,0-12.57-6.25-12.55-17.21l.11-38.11c0-10.47,2.33-14.39,8.22-14.37V37.49l-38.92-.11,0,5.24c5.89,0,8.17,3.94,8.14,14.41l-.09,32.56c-.06,21.26,11.53,31.27,28.21,31.32,16.52,0,26-9.75,29.52-25.11h1.63l0,10c0,12.76,7.16,13.6,19.92,13.63l10.8,0v-5.23c-5.89,0-8.17-3.95-8.14-14.42l.12-42.53C271.94,46.8,274.24,42.87,280.13,42.89ZM344.6,36.2c-18.16-.05-28.18,14.64-31.48,25.1h-1.64l0-10c0-12.76-7.16-13.59-19.92-13.63l-10.79,0,0,5.24c5.89,0,8.17,3.94,8.14,14.41l-.12,42.53c0,10.47-2.32,14.39-8.21,14.37l0,5.24,38.93.1v-5.23c-5.88,0-8.16-3.95-8.13-14.41l0-9.82c.06-22.41,10.92-45.44,25.15-45.4,7.86,0,10.78,6.9,2.22,26L361.34,74C368,49.51,363.24,36.25,344.6,36.2Zm16.24,42.57c-.07,22.08,12.15,42.56,44.7,42.66,27.48.07,42.73-15.26,42-37.51l-22.59,3.21c1.59,17.67-6.94,25.82-19.37,25.79-16.68,0-22.21-13.15-22.15-34.09s5.65-34,22.34-34c12.43,0,19.28,8.23,17.6,24.26l22.56,3.33c.88-20.61-12.49-36-40-36.1-32.55-.08-45,20.33-45.09,42.41Zm172.51,21.74L533.44,68c0-21.26-11.53-31.27-28.21-31.32-16.52,0-26,9.74-29.52,25.11h-1.63l.12-45.16c0-13.41-7.16-14.41-19.92-14.45l-10.79,0,0,5.24c5.89,0,8.17,4,8.14,14.41l-.21,78.52c0,10.47-2.33,14.39-8.22,14.37l0,5.23,38.93.11,0-5.23c-5.89,0-8.17-4-8.14-14.42l0-9.81c.06-22.41,7.64-45.45,24.33-45.41,9,0,12.58,6.25,12.55,17.21l-.1,38.12c0,10.46-2.33,14.38-8.22,14.37l0,5.23,38.93.11,0-5.24C535.6,114.91,533.32,111,533.35,100.51Zm6.47-94.86,0,14.23,25.84.08-.27,100.27,16.19,0,.31-114.5Zm103.72,116.1a42.47,42.47,0,0,0,24-6.88q10.58-6.93,16.66-20.16t6.14-31.39q0-18.15-6-31.42T667.81,11.65a45.07,45.07,0,0,0-48.1-.13q-10.56,6.91-16.65,20.15t-6.14,31.39q-.06,18.16,6,31.43t16.55,20.24a42.82,42.82,0,0,0,24.11,7Zm0-14.55a26.1,26.1,0,0,1-22.13-11.35q-8.24-11.31-8.17-32.74t8.35-32.69a26.07,26.07,0,0,1,22.19-11.23q13.74,0,22,11.35T674,63.28Q673.9,84.7,665.61,96t-22,11.23ZM733.5,4.88a46.21,46.21,0,0,0-20.62,4.44A35.56,35.56,0,0,0,698.37,22a34,34,0,0,0-5.37,19,33.54,33.54,0,0,0,4.94,18.25A32.53,32.53,0,0,0,711.81,71.4,46.42,46.42,0,0,0,732,75.7a47.4,47.4,0,0,0,19.48-3.79,30.89,30.89,0,0,0,13.6-11.16v4.09Q765,85.95,754.92,97t-27.92,11q-13.74,0-22.06-5.46l-6.25,12.74a43.37,43.37,0,0,0,12.74,5,69.16,69.16,0,0,0,15.7,1.77q16.2,0,28.4-6.88a47.27,47.27,0,0,0,19-20.39q6.83-13.48,6.88-32.62.07-27.32-12.4-42.23t-35.54-15Zm1.32,57.58q-11.94,0-19-6t-7-16.13q0-10.14,7-16.18t18.25-6a33.28,33.28,0,0,1,14.8,3.06,22.63,22.63,0,0,1,9.3,8A20.7,20.7,0,0,1,758,51.56a23,23,0,0,1-9.42,8,31.09,31.09,0,0,1-13.75,2.91ZM824.61,5.13A46.18,46.18,0,0,0,804,9.57a35.59,35.59,0,0,0-14.52,12.64,34,34,0,0,0-5.36,19A33.53,33.53,0,0,0,789,59.42a32.65,32.65,0,0,0,13.87,12.23A46.33,46.33,0,0,0,823.1,76a47.37,47.37,0,0,0,19.48-3.79A30.91,30.91,0,0,0,856.19,61v4.09Q856.12,86.18,846,97.2t-27.92,11q-13.74,0-22.06-5.46l-6.26,12.74a43.43,43.43,0,0,0,12.75,5,69,69,0,0,0,15.69,1.77q16.2,0,28.4-6.88a47.4,47.4,0,0,0,19-20.39q6.81-13.48,6.87-32.62.08-27.32-12.39-42.23t-35.54-15Zm1.31,57.58q-11.94,0-19-6t-7-16.13q0-10.14,7-16.18t18.26-6A33.23,33.23,0,0,1,840,21.44a22.5,22.5,0,0,1,9.3,8,20.68,20.68,0,0,1-.22,22.33,23.13,23.13,0,0,1-9.43,8,31.06,31.06,0,0,1-13.75,2.91Z" transform="translate(-9.48 -1.15)"/></svg>